<?xml version="1.0" encoding="UTF-8"?>
<svg id="uuid-18c3457b-2630-4775-83e8-b8f30ff5a25e" data-name="Layer 1" xmlns="http://www.w3.org/2000/svg" width="300" height="42.6037" viewBox="0 0 300 42.6037">
  <rect y=".0008" width="42.6037" height="42.6029" fill="#1e4479" stroke-width="0"/>
  <rect x="46.2438" width="253.7562" height="42.6037" fill="#1e4479" stroke-width="0"/>
  <g>
    <rect x="8.278" y="8.2879" width="4.1582" height="4.1582" fill="#fff" stroke-width="0"/>
    <rect x="22.8618" y="15.5839" width="4.1582" height="4.1582" fill="#fff" stroke-width="0"/>
    <rect x="30.1428" y="15.5839" width="4.1582" height="4.1582" fill="#fff" stroke-width="0"/>
    <rect x="15.569" y="8.2879" width="4.1582" height="4.1582" fill="#fff" stroke-width="0"/>
    <rect x="22.8618" y="8.2879" width="4.1582" height="4.1582" fill="#fff" stroke-width="0"/>
    <rect x="15.569" y="15.5839" width="4.1582" height="4.1582" fill="#fff" stroke-width="0"/>
    <rect x="15.569" y="22.88" width="4.1582" height="4.1582" fill="#fff" stroke-width="0"/>
    <rect x="22.8618" y="22.88" width="4.1582" height="4.1582" fill="#fff" stroke-width="0"/>
    <rect x="22.8618" y="30.176" width="4.1582" height="4.1582" fill="#fff" stroke-width="0"/>
  </g>
  <g>
    <path d="M67.7483,11.0663h1.7401c2.1392,0,2.5868,1.3527,3.4,2.9759h.6129v-3.7641h-13.6302l.005,3.7641h.6145c.8116-1.6232,1.3042-2.9759,3.4451-2.9759h1.4261v13.3563c0,2.2895.0985,2.1659-2.1142,2.4348v.6413h6.6164v-.6413c-2.2144-.2689-2.1158-.1453-2.1158-2.4348v-13.3563Z" fill="#fff" stroke-width="0"/>
    <path d="M67.7526,11.0399h1.7468c2.1492,0,2.5985,1.3577,3.4134,2.9876h.6162v-3.7774h-13.6853l.0033,3.7774h.6179c.8149-1.6299,1.3092-2.9876,3.4585-2.9876h1.4345v13.4014c0,2.2945.0969,2.1709-2.1259,2.4415v.6446h6.6448v-.6446c-2.2227-.2705-2.1242-.147-2.1242-2.4415v-13.4014Z" fill="none" stroke="#fff" stroke-miterlimit="3.864" stroke-width=".071"/>
    <path d="M86.962,27.4516v-.6914c-2.6519,0-2.2361-2.4331-2.2361-2.4331l-.0017-8.4784h-4.1833l.0017.7281c1.2057,0,1.9689-.1002,1.9689,1.0337v3.8626c0,3.6388-1.0821,4.8696-3.37,4.8696-2.1659,0-2.4599-1.7234-2.4599-3.567v-6.927h-4.1849l.0017.7281c1.2057,0,1.9672-.1002,1.9672,1.0337v5.384c0,2.7571.7632,4.7978,3.5921,4.7978.7147,0,1.7201-.2388,2.7003-.7131.7431-.3557,1.7518-1.1807,1.7518-1.1807l.025,1.5531h4.4271Z" fill="#fff" stroke-width="0"/>
    <path d="M86.9902,27.4784v-.6947c-2.6602,0-2.2444-2.4448-2.2444-2.4448l-.0017-8.5168h-4.1999l.0017.7298c1.2107,0,1.9756-.0985,1.9756,1.0387v3.8793c0,3.6572-1.0855,4.893-3.3833,4.893-2.1743,0-2.4682-1.7301-2.4682-3.5837v-6.9571h-4.1999v.7298c1.2107,0,1.9772-.0985,1.9772,1.0387v5.4123c0,2.7688.7632,4.8178,3.6038,4.8178.7164,0,1.7267-.2405,2.712-.7181.7448-.3574,1.7585-1.184,1.7585-1.184l.0234,1.5597h4.4454Z" fill="none" stroke="#fff" stroke-miterlimit="3.864" stroke-width=".071"/>
    <path d="M103.3123,21.4228c0-2.5333.2522-5.0767,3.6405-5.0767,2.0941,0,2.2945,2.0006,2.2945,3.552v7.6017h4.1833v-.6413c-2.0607,0-1.9689-.2221-1.9689-2.4348v-4.9297c0-3.0627-1.3744-4.5907-3.4518-4.5907-2.1392,0-3.3032.7715-4.6976,2.1643v-1.2174h-4.1833l.0017.7264c1.3911,0,1.9689.1102,1.9689,1.032v6.8151c0,2.2127.1069,2.388-1.9689,2.4348v.6413h6.1505v-.6413c-2.029-.0468-1.9689-.2221-1.9689-2.4348v-3.0009Z" fill="#fff" stroke-width="0"/>
    <path d="M103.3007,21.4243c0-2.5467.2538-5.1001,3.6555-5.1001,2.1025,0,2.3029,2.0106,2.3029,3.567v7.6367h4.1983v-.6446c-2.0691,0-1.9756-.2238-1.9756-2.4448v-4.9531c0-3.0761-1.3794-4.6108-3.4652-4.6108-2.1492,0-3.3149.7749-4.716,2.176v-1.2258h-4.1999l.0017.7314c1.3961,0,1.9772.1119,1.9772,1.037v6.8452c0,2.221.1052,2.3981-1.9772,2.4448v.6446h6.1738v-.6446c-2.0357-.0468-1.9756-.2238-1.9756-2.4448v-3.0143Z" fill="none" stroke="#fff" stroke-miterlimit="3.864" stroke-width=".071"/>
    <path d="M184.1061,26.9323c-2.682,0-4.0847-2.4348-4.0847-5.5827,0-3.7891,1.6733-5.5843,3.7908-5.5843,2.8757,0,4.033,2.8773,4.033,5.6094,0,3.8108-1.6983,5.5576-3.739,5.5576M183.712,27.7923c3.9361,0,6.568-2.9759,6.568-6.5412,0-4.2584-3.0493-6.3458-6.1237-6.3458-4.0847,0-6.5679,3.1228-6.5679,6.5429,0,4.205,2.9759,6.3442,6.1237,6.3442" fill="#fff" stroke-width="0"/>
    <path d="M184.1074,26.9563c-2.6953,0-4.1031-2.4448-4.1031-5.6077,0-3.8058,1.6816-5.6077,3.8058-5.6077,2.889,0,4.053,2.8907,4.053,5.6328,0,3.8292-1.705,5.5827-3.7557,5.5827ZM183.7116,27.8214c3.9528,0,6.5963-2.9892,6.5963-6.5713,0-4.2734-3.0644-6.3742-6.1505-6.3742-4.1031,0-6.598,3.1379-6.598,6.573,0,4.2233,2.9876,6.3726,6.1521,6.3726Z" fill="none" stroke="#fff" stroke-miterlimit="3.864" stroke-width=".071"/>
    <path d="M190.8618,16.4854c1.0838,0,1.5815.0367,1.7752.6513l3.0961,10.3604h1.007l3.714-9.2733,3.5437,9.2733h1.0087l3.0493-8.9827c.6396-1.7418,1.1022-2.019,2.186-2.019v-.6396h-4.9698v.6396c1.5297.0267,2.4114-.3557,1.6967,2.0307l-1.8887,5.8716h-.0484l-3.3934-9.1998h-1.1089l-3.6171,9.1263h-.0484l-1.6366-6.3809c-.4743-1.67.5277-1.4211,2.1142-1.4211v-.6763h-6.4794v.6396Z" fill="#fff" stroke-width="0"/>
    <path d="M190.8337,16.464c1.0855,0,1.5848.0367,1.7818.6513l3.1028,10.4105h1.0103l3.7274-9.315,3.552,9.315h1.0103l3.0577-9.0228c.6429-1.7501,1.1072-2.0307,2.1943-2.0307v-.6413h-4.9848v.6413c1.5347.0284,2.4181-.3557,1.7017,2.0424l-1.8937,5.8983h-.0501l-3.4034-9.2416h-1.1122l-3.6272,9.1681h-.0484l-1.6399-6.4126c-.4759-1.6783.5277-1.4261,2.1192-1.4261v-.6813h-6.4978v.6446Z" fill="none" stroke="#fff" stroke-miterlimit="3.864" stroke-width=".071"/>
    <path d="M159.2262,15.79h-8.4884v1.1306h2.8907c.9101,1.2308.8116,4.0831-.025,5.8315l-5.8298-5.5125c-2.1876-2.0657-2.6586-3.1479-2.6586-4.23,0-1.5731,1.2074-2.3379,2.191-2.3379,1.5013,0,2.3129.8383,2.8039,2.5584h.6413v-2.2628c-.5427-.5394-1.7234-.9836-3.198-.9836-3.0009,0-4.5039,1.7484-4.5039,3.886,0,1.8954,1.3543,2.9291,2.7805,4.3052-3.1228.3707-4.5991,2.2895-4.5991,4.5523,0,2.4832,1.8937,5.0667,6.1989,5.0667,2.7554,0,4.6725-1.2308,5.8549-2.7554.835.86,1.6232,1.5497,2.6068,2.4615h2.879v-.4693c-.9352-.6162-3.2731-2.6319-4.4538-3.7624,1.1306-2.019,1.0337-4.8947.9335-6.3475h3.9762v-1.1306ZM152.5948,24.4471c-.8367,1.0337-2.3129,2.3379-4.6258,2.3379-2.6302,0-4.1064-2.0407-4.1064-4.2801,0-1.0821.344-3.0994,2.4114-3.8609l6.3208,5.8031Z" fill="#fff" stroke-width="0"/>
    <path d="M159.2529,15.7803h-8.5135v1.1339h2.8991c.9135,1.2341.8166,4.0947-.0234,5.8482l-5.8482-5.5276c-2.196-2.0724-2.6669-3.1579-2.6669-4.2434,0-1.5798,1.2107-2.3463,2.1977-2.3463,1.5046,0,2.3179.8417,2.8122,2.5684h.6413v-2.2711c-.5427-.5427-1.7267-.9886-3.208-.9886-3.0109,0-4.5156,1.7551-4.5156,3.901,0,1.9004,1.3577,2.9358,2.7888,4.3185-3.1328.3691-4.6141,2.2945-4.6141,4.5657,0,2.4916,1.9004,5.0834,6.2189,5.0834,2.7638,0,4.6859-1.2358,5.8733-2.7638.8383.8634,1.6265,1.5547,2.6135,2.4682h2.8874v-.4709c-.9368-.6179-3.2815-2.6402-4.4655-3.7741,1.1339-2.024,1.0354-4.9114.9368-6.3676h3.9862v-1.1339ZM152.6031,24.4658c-.84,1.0354-2.3212,2.3446-4.6408,2.3446-2.6385,0-4.1198-2.0474-4.1198-4.2935,0-1.0871.3457-3.1095,2.4181-3.8743l6.3425,5.8232Z" fill="none" stroke="#fff" stroke-miterlimit="3.864" stroke-width=".071"/>
    <path d="M228.6897,27.1292c.9101.4425,1.9672.6646,3.3199.6646,2.1409,0,4.4538-1.1322,4.4538-3.6906,0-1.1306-.2956-2.0407-2.6085-3.6639-1.7969-1.2792-3.051-1.9188-3.051-3.1011,0-.9586.86-1.5731,1.8954-1.5731,1.4028,0,2.1392,1.1807,2.2127,2.019h.6396v-2.4615c-1.1306-.3691-2.1142-.4175-2.9007-.4175-2.019,0-3.9378,1.1556-3.9378,3.223,0,1.6215.8116,2.014,2.8039,3.4652,1.4779,1.0571,2.7571,1.6232,2.7571,3.2247,0,1.032-.8367,2.1142-2.2645,2.1142-1.4261,0-2.7053-.8367-2.682-2.5584h-.6379v2.7554Z" fill="#fff" stroke-width="0"/>
    <path d="M228.6605,27.1549c.9168.4442,1.9822.6663,3.3449.6663,2.1559,0,4.4855-1.1356,4.4855-3.7056,0-1.1356-.2956-2.0507-2.6268-3.6806-1.8102-1.2859-3.0727-1.9271-3.0727-3.1145,0-.9619.8684-1.5815,1.9071-1.5815,1.4145,0,2.1559,1.1873,2.2311,2.0273h.6446v-2.4699c-1.1406-.3707-2.1309-.4208-2.9241-.4208-2.0307,0-3.9645,1.1606-3.9645,3.2364,0,1.6316.8183,2.0257,2.8256,3.4835,1.4863,1.0621,2.7755,1.6299,2.7755,3.2381,0,1.037-.8433,2.1225-2.2812,2.1225-1.4362,0-2.7254-.84-2.7003-2.5684h-.6446v2.7671Z" fill="none" stroke="#fff" stroke-miterlimit="3.864" stroke-width=".071"/>
    <path d="M97.2329,14.9168c-1.8553.1035-2.9508.86-4.2434,2.1509v-1.2191h-4.1833l.0017.7281c1.3894,0,1.9672.1119,1.9672,1.0337v6.8134c0,2.2127.1069,2.388-1.9672,2.4331v.6396h6.1505v-.6396c-2.0273-.0451-1.9689-.2204-1.9689-2.4331v-2.9992c0-2.535.2538-5.08,3.6405-5.08.2254,0,.4275.0234.6112.0668l-.0083-1.4946Z" fill="#fff" stroke-width="0"/>
    <path d="M97.2613,14.8862c-1.867.1069-2.9725.8634-4.2718,2.1626v-1.2241h-4.2116l.0017.7298c1.4011,0,1.9806.1102,1.9806,1.037v6.8468c0,2.2227.1069,2.3964-1.9806,2.4448v.6413h6.1922v-.6413c-2.0424-.0484-1.9822-.2221-1.9822-2.4448v-3.0159c0-2.5433.2555-5.1001,3.6656-5.1001.2271,0,.4308.0217.6145.0651l-.0083-1.5013Z" fill="none" stroke="#fff" stroke-miterlimit="3.864" stroke-width=".071"/>
    <path d="M117.9588,19.8757v.8333h6.249v-.688c0-3.0994-1.7969-5.1184-4.5774-5.1184-4.1816,0-5.7313,3.5186-5.7313,6.3976,0,1.8436.9118,3.7858,1.6483,4.6241,1.9939,2.1876,4.0597,1.8687,4.6742,1.8687h.7632l3.223-1.5247-.3958-.7615c-.5895.2939-1.4011.8851-2.7538.8851-3.5169,0-4.8195-2.7287-4.8195-6.1171s1.5965-4.5106,3.2447-4.5106c1.3777,0,2.5818,1.0838,2.5818,2.6569,0,1.0838-.688,1.4278-1.2291,1.4278l-2.8773.0267Z" fill="#fff" stroke-width="0"/>
    <path d="M117.957,19.8694v.8367h6.2891v-.6914c0-3.1128-1.8102-5.1401-4.6058-5.1401-4.21,0-5.768,3.5336-5.768,6.426,0,1.852.9151,3.8025,1.6583,4.6442,2.0073,2.196,4.0847,1.877,4.7026,1.877h.7682l3.2447-1.533-.3975-.7632c-.5945.2956-1.4128.8884-2.7721.8884-3.5386,0-4.8496-2.7421-4.8496-6.1438s1.6065-4.5306,3.2648-4.5306c1.3861,0,2.5985,1.0888,2.5985,2.6686,0,1.0888-.693,1.4345-1.2374,1.4345l-2.8957.0267Z" fill="none" stroke="#fff" stroke-miterlimit="3.864" stroke-width=".071"/>
    <path d="M280.1627,27.4513v-.6396c-1.8937,0-2.0607.0083-2.0607-1.2458v-15.4438l-4.1816.0351v.6379h1.007c.6663,0,.9602.4175.9602,1.0838v3.4435c-.8851-.3691-1.9923-.4175-2.7788-.4175-3.3199,0-6.5195,2.2361-6.5195,6.5913,0,2.8022,1.7217,6.2991,5.7814,6.2991.5895,0,.9101-.1987,1.8687-.7398l1.665-.9853v1.3794l4.2584.0017ZM275.8876,24.103c0,1.2057-1.5247,2.2895-2.8272,2.2895-3.0026,0-4.1332-3.3216-4.1332-5.8799,0-1.9188,1.0821-4.7477,3.7891-4.7477,1.523,0,2.5317.4175,3.1713,1.4762v6.8619Z" fill="#fff" stroke-width="0"/>
    <path d="M280.1896,27.4784v-.6413c-1.8987,0-2.0691.0083-2.0691-1.2508v-15.4939l-4.1966.0351v.6429h1.012c.6663,0,.9619.4175.9619,1.0855v3.4535c-.8901-.3691-2.0006-.4175-2.7905-.4175-3.3349,0-6.5479,2.2444-6.5479,6.613,0,2.8122,1.7317,6.3158,5.8065,6.3158.5928,0,.9135-.1954,1.8754-.7398l1.6733-.9886v1.3844l4.2751.0017ZM275.8978,24.1201c0,1.2091-1.5314,2.2945-2.8406,2.2945-3.0143,0-4.1482-3.3316-4.1482-5.8966,0-1.9255,1.0871-4.7644,3.8042-4.7644,1.528,0,2.5433.4208,3.1846,1.4813v6.8852Z" fill="none" stroke="#fff" stroke-miterlimit="3.864" stroke-width=".071"/>
    <path d="M134.7638,14.9168c-1.8553.1035-2.9508.86-4.2434,2.1509v-1.2191h-4.1816v.7281c1.3894,0,1.9689.1119,1.9689,1.0337v6.8134c0,2.2127.1052,2.388-1.9689,2.4331v.6396h6.1505v-.6396c-2.0273-.0451-1.9689-.2204-1.9689-2.4331v-2.9992c0-2.535.2538-5.08,3.6405-5.08.2271,0,.4275.0234.6129.0668l-.01-1.4946Z" fill="#fff" stroke-width="0"/>
    <path d="M134.792,14.8862c-1.867.1069-2.9709.8634-4.2701,2.1626v-1.2241h-4.2133l.0017.7298c1.4011,0,1.9822.1102,1.9822,1.037v6.8468c0,2.2227.1052,2.3964-1.9822,2.4448v.6413h6.1922v-.6413c-2.0424-.0484-1.9806-.2221-1.9806-2.4448v-3.0159c0-2.5433.2538-5.1001,3.6639-5.1001.2271,0,.4308.0217.6162.0651l-.01-1.5013Z" fill="none" stroke="#fff" stroke-miterlimit="3.864" stroke-width=".071"/>
    <path d="M171.5216,11.0663h1.7401c2.1409,0,2.5868,1.3527,3.4,2.9759h.6145v-3.7641h-13.6302l.0033,3.7641h.6145c.8133-1.6232,1.3059-2.9759,3.4435-2.9759h1.4295v13.3563c0,2.2895.0969,2.1659-2.1158,2.4348v.6413h6.6164v-.6413c-2.2144-.2689-2.1158-.1453-2.1158-2.4348v-13.3563Z" fill="#fff" stroke-width="0"/>
    <path d="M171.5261,11.0399h1.7468c2.1492,0,2.5985,1.3577,3.4151,2.9876h.6145v-3.7774h-13.6853l.005,3.7774h.6162c.8166-1.6299,1.3109-2.9876,3.4585-2.9876h1.4345v13.4014c0,2.2945.0985,2.1709-2.1259,2.4415v.6446h6.6448v-.6446c-2.2227-.2705-2.1242-.147-2.1242-2.4415v-13.4014Z" fill="none" stroke="#fff" stroke-miterlimit="3.864" stroke-width=".071"/>
    <path d="M216.2131,21.4228c0-2.5333.2538-5.0767,3.6405-5.0767,2.0941,0,2.2945,2.0006,2.2945,3.552v7.6017h4.1816v-.6413c-2.0591,0-1.9672-.2221-1.9672-2.4348v-4.9297c0-3.0627-1.3744-4.5907-3.4518-4.5907-2.1409,0-3.3032.7715-4.6976,2.1643v-1.2174h-4.1833v.7264c1.3911,0,1.9689.1102,1.9689,1.032v6.8151c0,2.2127.1069,2.388-1.9689,2.4348v.6413h6.1521v-.6413c-2.029-.0468-1.9689-.2221-1.9689-2.4348v-3.0009Z" fill="#fff" stroke-width="0"/>
    <path d="M216.2009,21.4243c0-2.5467.2555-5.1001,3.6539-5.1001,2.1041,0,2.3045,2.0106,2.3045,3.567v7.6367h4.1983v-.6446c-2.0674,0-1.9739-.2238-1.9739-2.4448v-4.9531c0-3.0761-1.3811-4.6108-3.4668-4.6108-2.1492,0-3.3149.7749-4.716,2.176v-1.2258h-4.1999l.0033.7314c1.3944,0,1.9756.1119,1.9756,1.037v6.8452c0,2.221.1069,2.3981-1.9756,2.4448v.6446h6.1738v-.6446c-2.0374-.0468-1.9772-.2238-1.9772-2.4448v-3.0143Z" fill="none" stroke="#fff" stroke-miterlimit="3.864" stroke-width=".071"/>
    <path d="M255.2846,21.4228c0-2.5333.2522-5.0767,3.6422-5.0767,2.0925,0,2.2929,2.0006,2.2929,3.552v7.6017h4.1816v-.6413c-2.0591,0-1.9672-.2221-1.9672-2.4348v-4.9297c0-3.0627-1.3727-4.5907-3.4501-4.5907-2.1426,0-3.3049.7715-4.6993,2.1643v-1.2174h-4.1833l.0017.7264c1.3894,0,1.9672.1102,1.9672,1.032v6.8151c0,2.2127.1085,2.388-1.9672,2.4348v.6413h6.1505v-.6413c-2.029-.0468-1.9689-.2221-1.9689-2.4348v-3.0009Z" fill="#fff" stroke-width="0"/>
    <path d="M255.2736,21.4243c0-2.5467.2538-5.1001,3.6539-5.1001,2.1025,0,2.3029,2.0106,2.3029,3.567v7.6367h4.1999v-.6446c-2.0691,0-1.9756-.2238-1.9756-2.4448v-4.9531c0-3.0761-1.3794-4.6108-3.4652-4.6108-2.1492,0-3.3165.7749-4.716,2.176v-1.2258h-4.2016l.0033.7314c1.3944,0,1.9756.1119,1.9756,1.037v6.8452c0,2.221.1069,2.3981-1.9756,2.4448v.6446h6.1738v-.6446c-2.0374-.0468-1.9756-.2238-1.9756-2.4448v-3.0143Z" fill="none" stroke="#fff" stroke-miterlimit="3.864" stroke-width=".071"/>
    <path d="M242.7424,19.8757v.8333h6.249v-.688c0-3.0994-1.7985-5.1184-4.5757-5.1184-4.1833,0-5.733,3.5186-5.733,6.3976,0,1.8436.9118,3.7858,1.6483,4.6241,1.9939,2.1876,4.0597,1.8687,4.6742,1.8687h.7632l3.223-1.5247-.3941-.7615c-.5912.2939-1.4044.8851-2.7554.8851-3.5169,0-4.8178-2.7287-4.8178-6.1171s1.5965-4.5106,3.2431-4.5106c1.3777,0,2.5818,1.0838,2.5818,2.6569,0,1.0838-.688,1.4278-1.2291,1.4278l-2.8773.0267Z" fill="#fff" stroke-width="0"/>
    <path d="M242.7407,19.8694v.8367h6.2891v-.6914c0-3.1128-1.8102-5.1401-4.6058-5.1401-4.21,0-5.768,3.5336-5.768,6.426,0,1.852.9151,3.8025,1.6583,4.6442,2.0073,2.196,4.0847,1.877,4.7026,1.877h.7699l3.2431-1.533-.3975-.7632c-.5945.2956-1.4128.8884-2.7721.8884-3.5386,0-4.8496-2.7421-4.8496-6.1438s1.6065-4.5306,3.2631-4.5306c1.3877,0,2.6001,1.0888,2.6001,2.6686,0,1.0888-.693,1.4345-1.2358,1.4345l-2.8974.0267Z" fill="none" stroke="#fff" stroke-miterlimit="3.864" stroke-width=".071"/>
  </g>
</svg>